<?xml version="1.0" encoding="UTF-8"?>
<svg version="1.1" xmlns="http://www.w3.org/2000/svg" width="1200" height="1200">
<path d="M0 0 C1.92513947 -0.0163799 1.92513947 -0.0163799 3.88917065 -0.03309071 C7.43618518 -0.0622208 10.98187567 -0.04791436 14.52889395 -0.02618718 C18.35997932 -0.01031727 22.19084058 -0.03481116 26.0218811 -0.05404663 C33.5207335 -0.08514595 41.01909501 -0.07846241 48.51796651 -0.05815814 C54.61328609 -0.04233855 60.70846826 -0.04021012 66.80380249 -0.04782486 C67.67187222 -0.04889749 68.53994194 -0.04997012 69.43431681 -0.05107526 C71.19787673 -0.05331337 72.96143661 -0.05558287 74.72499645 -0.0578834 C91.255445 -0.07783624 107.78562166 -0.05490626 124.31602561 -0.01728083 C138.49475543 0.01399293 152.67308406 0.00856053 166.85180664 -0.02371216 C183.32375473 -0.06118707 199.79546462 -0.0759137 216.26744938 -0.05442631 C218.02446044 -0.05219651 219.78147153 -0.04999591 221.53848267 -0.04782486 C222.40292769 -0.04674493 223.26737272 -0.045665 224.15801305 -0.04455235 C230.24483509 -0.03851261 236.33150583 -0.04870085 242.41830444 -0.06518173 C249.83791266 -0.0848301 257.25700261 -0.07946973 264.67655158 -0.04221652 C268.46108627 -0.02383977 272.24475746 -0.01657855 276.02928543 -0.03976059 C280.13436779 -0.06452557 284.23727708 -0.03492715 288.34228516 0 C289.53528323 -0.01561505 290.72828131 -0.0312301 291.95743084 -0.04731834 C298.84753064 0.06652637 302.63808853 1.03046467 307.49869823 6.04289234 C308.05060487 6.65207008 308.6025115 7.26124782 309.17114258 7.8888855 C310.43695609 9.07943728 311.71069475 10.26167084 312.99536133 11.43185425 C314.28425114 12.6454997 315.57198225 13.86037668 316.85864258 15.0763855 C318.26452428 16.39969356 319.67077919 17.72260522 321.07739258 19.0451355 C321.76833008 19.694823 322.45926758 20.3445105 323.17114258 21.0138855 C326.05348115 23.71607791 328.95313551 26.39914598 331.85864258 29.0763855 C332.38433838 29.5608313 332.91003418 30.0452771 333.45166016 30.54440308 C335.02444342 31.99297455 336.59777131 33.44095274 338.17114258 34.8888855 C345.02502605 41.20039056 351.86354042 47.52745491 358.67114258 53.8888855 C363.54057895 58.43654187 368.4106901 62.9834313 373.29614258 67.5138855 C373.8162793 67.998573 374.33641602 68.4832605 374.87231445 68.9826355 C377.87138966 71.7582502 380.94951344 74.37530672 384.17114258 76.8888855 C382.85498146 79.77947926 381.4187002 81.91450842 379.22973633 84.209198 C378.65078613 84.82166382 378.07183594 85.43412964 377.4753418 86.06515503 C376.85933105 86.70823608 376.24332031 87.35131714 375.60864258 88.0138855 C374.3280167 89.36741104 373.04806815 90.72157775 371.76879883 92.0763855 C370.83704834 93.06058472 370.83704834 93.06058472 369.88647461 94.06466675 C367.73758129 96.34996861 365.63565237 98.67425022 363.54614258 101.0138855 C360.12549662 104.84144845 356.65867383 108.62243891 353.17114258 112.3888855 C349.64412277 116.19868547 346.1360395 120.0222614 342.67114258 123.8888855 C338.69584204 128.32509045 334.6590659 132.70142948 330.61254883 137.07247925 C327.60703535 140.32271646 324.62554649 143.591942 321.67114258 146.8888855 C317.69584204 151.32509045 313.6590659 155.70142948 309.61254883 160.07247925 C306.60703535 163.32271646 303.62554649 166.591942 300.67114258 169.8888855 C296.69584204 174.32509045 292.6590659 178.70142948 288.61254883 183.07247925 C285.60703535 186.32271646 282.62554649 189.591942 279.67114258 192.8888855 C275.69584204 197.32509045 271.6590659 201.70142948 267.61254883 206.07247925 C264.60703535 209.32271646 261.62554649 212.591942 258.67114258 215.8888855 C254.69584204 220.32509045 250.6590659 224.70142948 246.61254883 229.07247925 C243.60703535 232.32271646 240.62554649 235.591942 237.67114258 238.8888855 C233.23743543 243.83478986 228.73170838 248.71175204 224.22192383 253.58810425 C214.06931395 264.56660168 203.9784019 275.59950017 194.17114258 286.8888855 C190.18191812 286.36234357 188.66774702 284.57556024 186.10864258 281.5763855 C185.32102539 280.67017456 184.5334082 279.76396362 183.72192383 278.83029175 C182.88016602 277.85962769 182.0384082 276.88896362 181.17114258 275.8888855 C179.38577378 273.92418866 177.59565976 271.96546556 175.79614258 270.0138855 C174.86108799 268.99580212 173.92619345 267.97757171 172.99145508 266.959198 C172.52513672 266.45162964 172.05881836 265.94406128 171.57836914 265.42111206 C169.73088067 263.40951635 167.88534495 261.39613562 166.04003906 259.38253784 C165.13087312 258.39051407 164.22153198 257.39865084 163.31201172 256.4069519 C160.93018572 253.80975936 158.55085758 251.21033437 156.17504883 248.6076355 C155.68262695 248.06880737 155.19020508 247.52997925 154.68286133 246.974823 C153.31506201 245.47798601 151.94815217 243.98033636 150.58129883 242.4826355 C148.49025995 240.23231164 146.36068736 238.04286923 144.17114258 235.8888855 C138.97343029 240.99247422 133.87349049 246.11114627 129.13208008 251.64279175 C126.61540373 254.52543896 124.02153602 257.33182467 121.42114258 260.1388855 C120.90801514 260.69318237 120.3948877 261.24747925 119.86621094 261.818573 C118.81972121 262.94874927 117.7730897 264.07879427 116.72631836 265.20870972 C110.11390813 272.3526041 103.52660891 279.51394163 97.17114258 286.8888855 C93.71233766 286.32235711 92.35387277 285.34456147 90.17114258 282.6388855 C87.02064675 278.86906142 83.76488531 275.23619228 80.42114258 271.6388855 C79.37802367 270.51272249 78.3350562 269.38641918 77.29223633 268.25997925 C76.77258301 267.69907593 76.25292969 267.13817261 75.7175293 266.56027222 C70.0140608 260.39577185 64.3406526 254.20380675 58.73364258 247.9513855 C54.73596885 243.49601746 50.67913373 239.09805031 46.61279297 234.70553589 C42.87587376 230.66438666 39.18815152 226.58177953 35.51489258 222.4826355 C32.75645898 219.42996898 29.96613948 216.40804255 27.17114258 213.3888855 C22.91228934 208.7884701 18.69872415 204.151549 14.51489258 199.4826355 C11.75645898 196.42996898 8.96613948 193.40804255 6.17114258 190.3888855 C1.91228934 185.7884701 -2.30127585 181.151549 -6.48510742 176.4826355 C-9.24354102 173.42996898 -12.03386052 170.40804255 -14.82885742 167.3888855 C-18.35583358 163.57904409 -21.86395956 159.75551065 -25.32885742 155.8888855 C-29.76256457 150.94298114 -34.26829162 146.06601896 -38.77807617 141.18966675 C-44.98202504 134.4810433 -51.16572535 127.7542486 -57.26635742 120.9513855 C-61.26403115 116.49601746 -65.32086627 112.09805031 -69.38720703 107.70553589 C-73.11433519 103.67497481 -76.79961583 99.60998766 -80.44604492 95.506073 C-82.29621781 93.47391589 -84.17198297 91.49169075 -86.08666992 89.521698 C-86.64418945 88.94033081 -87.20170898 88.35896362 -87.77612305 87.75997925 C-88.87659486 86.61466865 -89.98702652 85.47882796 -91.1081543 84.35372925 C-94.81293581 80.47161667 -94.81293581 80.47161667 -94.88745117 77.74435425 C-93.59362503 75.4765778 -92.15153072 73.8877751 -90.26635742 72.0763855 C-89.30536133 71.13859253 -89.30536133 71.13859253 -88.32495117 70.18185425 C-86.2649056 68.28944932 -84.17876971 66.44542205 -82.06713867 64.61154175 C-77.80011907 60.89433698 -73.6828968 57.03426098 -69.57885742 53.1388855 C-63.71331484 47.5941844 -57.81082313 42.09883232 -51.84838867 36.65841675 C-48.33857083 33.44860337 -44.8654138 30.19980229 -41.39135742 26.9513855 C-36.56652815 22.44217046 -31.73826626 17.93687371 -26.89135742 13.4513855 C-26.39643799 12.99191528 -25.90151855 12.53244507 -25.39160156 12.05905151 C-24.43591591 11.17598587 -23.4717091 10.30202806 -22.49810505 9.43875802 C-20.79117204 7.89964097 -20.79117204 7.89964097 -19.22736645 6.11384571 C-13.33724853 0.04237866 -8.17990123 -0.10706604 0 0 Z M-13.54484558 40.30284119 C-15.80373648 43.09308108 -18.51990997 45.39261632 -21.20385742 47.7638855 C-26.58413295 52.72520217 -31.93386323 57.718729 -37.27978516 62.7170105 C-43.09340658 68.14720776 -48.95244116 73.52679245 -54.82885742 78.8888855 C-53.21954723 82.74395624 -50.73030538 85.35850202 -47.89135742 88.3888855 C-46.89515705 89.45909876 -45.89906641 90.52941417 -44.90307617 91.599823 C-44.39309082 92.14477417 -43.88310547 92.68972534 -43.35766602 93.25119019 C-40.95639216 95.82349057 -38.58008302 98.41846487 -36.20385742 101.0138855 C-35.74495117 101.51412231 -35.28604492 102.01435913 -34.81323242 102.52975464 C-31.98763433 105.61245398 -29.18294485 108.71288529 -26.39135742 111.8263855 C-22.39368369 116.28175354 -18.33684857 120.67972069 -14.27050781 125.07223511 C-10.53358861 129.11338434 -6.84586636 133.19599146 -3.17260742 137.2951355 C-0.41417382 140.34780202 2.37614568 143.36972844 5.17114258 146.3888855 C9.42999581 150.9893009 13.643561 155.626222 17.82739258 160.2951355 C20.58582618 163.34780202 23.37614568 166.36972844 26.17114258 169.3888855 C29.69811874 173.19872691 33.20624472 177.02226035 36.67114258 180.8888855 C41.10484972 185.83478986 45.61057678 190.71175204 50.12036133 195.58810425 C56.32431019 202.29672769 62.50801051 209.0235224 68.60864258 215.8263855 C72.59897131 220.27356761 76.64422379 224.66749581 80.7097168 229.04586792 C83.11407437 231.63983994 85.4994246 234.24503209 87.83129883 236.9045105 C88.62407227 237.80685425 89.4168457 238.709198 90.23364258 239.6388855 C90.92586914 240.43810425 91.6180957 241.237323 92.33129883 242.0607605 C94.13491586 244.12367311 94.13491586 244.12367311 97.17114258 244.8888855 C97.5140332 244.48540894 97.85692383 244.08193237 98.21020508 243.66622925 C103.00075411 238.1087204 108.00526906 232.76420399 113.02368164 227.41378784 C117.16848525 222.98633321 121.24304665 218.51104348 125.17114258 213.8888855 C120.85497418 208.73346213 116.33812813 203.78952929 111.76782227 198.86080933 C108.70882945 195.56009388 105.67359364 192.24134907 102.67114258 188.8888855 C99.20624472 185.02226035 95.69811874 181.19872691 92.17114258 177.3888855 C87.91228934 172.7884701 83.69872415 168.151549 79.51489258 163.4826355 C76.75645898 160.42996898 73.96613948 157.40804255 71.17114258 154.3888855 C66.91228934 149.7884701 62.69872415 145.151549 58.51489258 140.4826355 C55.75645898 137.42996898 52.96613948 134.40804255 50.17114258 131.3888855 C46.64416642 127.57904409 43.13604044 123.75551065 39.67114258 119.8888855 C35.23743543 114.94298114 30.73170838 110.06601896 26.22192383 105.18966675 C22.40021973 101.05707728 18.59018511 96.91407891 14.79614258 92.756073 C13.03661221 90.83420501 11.26559613 88.92279379 9.48364258 87.021698 C8.65864258 86.13224487 7.83364258 85.24279175 6.98364258 84.3263855 C6.24758789 83.54134644 5.5115332 82.75630737 4.75317383 81.94747925 C3.17114258 79.8888855 3.17114258 79.8888855 3.17114258 76.8888855 C5.07739258 74.6545105 5.07739258 74.6545105 7.67114258 72.1388855 C8.50645508 71.31904175 9.34176758 70.499198 10.20239258 69.6545105 C13.09288107 66.91713379 16.10134833 64.32116749 19.10522461 61.70968628 C22.42711678 58.78193021 25.64109233 55.7428189 28.85864258 52.7013855 C32.89463522 48.89664638 36.93170232 45.09513616 41.02661133 41.35372925 C41.91956909 40.53714844 41.91956909 40.53714844 42.83056641 39.70407104 C43.94649149 38.68597005 45.06470237 37.67036692 46.18554688 36.65768433 C48.55042563 34.49788161 50.38205057 32.5725235 52.17114258 29.8888855 C44.71983485 29.58230311 37.27017421 29.37354626 29.81396484 29.22970581 C27.28307337 29.16969615 24.75259201 29.08805461 22.22314453 28.98361206 C1.6483537 28.0276092 1.6483537 28.0276092 -13.54484558 40.30284119 Z M85.17114258 38.8888855 C83.84051236 40.16882171 82.49194871 41.43072618 81.11645508 42.662323 C79.84222009 43.86199734 78.56878931 45.06252642 77.29614258 46.2638855 C71.66134381 51.56531901 65.98988685 56.82051142 60.27661133 62.037323 C54.19575905 67.60489579 48.19098973 73.25555859 42.17114258 78.8888855 C43.77041327 82.24467459 45.57989722 84.64521965 48.10864258 87.3888855 C48.91430664 88.26802612 49.7199707 89.14716675 50.55004883 90.052948 C51.41500977 90.98880737 52.2799707 91.92466675 53.17114258 92.8888855 C54.50622773 94.34784453 55.84130482 95.80681107 57.17578125 97.2663269 C59.50390289 99.81054535 61.83774568 102.34950598 64.17114258 104.8888855 C74.53304515 116.16549395 74.53304515 116.16549395 79.60864258 121.8263855 C83.60631631 126.28175354 87.66315143 130.67972069 91.72949219 135.07223511 C94.73510331 138.322539 97.71666182 141.59185624 100.67114258 144.8888855 C105.10484972 149.83478986 109.61057678 154.71175204 114.12036133 159.58810425 C134.13509027 181.23097765 134.13509027 181.23097765 143.17114258 191.8888855 C147.32344766 190.298641 149.84888337 187.25098171 152.73364258 184.0138855 C153.25740479 183.43598267 153.78116699 182.85807983 154.32080078 182.26266479 C155.40821811 181.06276165 156.49340698 179.86083538 157.57641602 178.6569519 C159.53109376 176.48980919 161.5060376 174.34193488 163.4831543 172.19528198 C167.21866801 168.13819848 170.92667928 164.05717191 174.60864258 159.9513855 C178.60631631 155.49601746 182.66315143 151.09805031 186.72949219 146.70553589 C189.73510331 143.45523199 192.71666182 140.18591475 195.67114258 136.8888855 C200.10484972 131.94298114 204.61057678 127.06601896 209.12036133 122.18966675 C216.05778918 114.68789777 222.95512694 107.15187856 229.76879883 99.537323 C231.59389707 97.52526347 233.4335922 95.53362716 235.29223633 93.552948 C235.83114502 92.97665649 236.37005371 92.40036499 236.92529297 91.80661011 C237.97929845 90.68148029 239.03689618 89.55970121 240.09863281 88.44186401 C242.90358576 85.44324128 245.20917709 82.49916893 247.17114258 78.8888855 C246.68282959 78.46695923 246.1945166 78.04503296 245.69140625 77.61032104 C240.85506349 73.40840458 236.1395515 69.10163487 231.48364258 64.7013855 C230.07776088 63.37807744 228.67150597 62.05516578 227.26489258 60.7326355 C226.57395508 60.082948 225.88301758 59.4332605 225.17114258 58.7638855 C222.28880388 56.06169297 219.38913701 53.37863893 216.48364258 50.7013855 C215.70815063 49.98668091 215.70815063 49.98668091 214.91699219 49.25753784 C213.33548388 47.80083993 211.75337979 46.34479163 210.17114258 44.8888855 C207.79537814 42.70221385 205.42054585 40.51453498 203.04614258 38.3263855 C202.50127197 37.82534302 201.95640137 37.32430054 201.39501953 36.80807495 C197.28617738 33.02144398 197.28617738 33.02144398 195.75690556 31.25921249 C193.75927165 29.53296985 192.73346425 29.5002198 190.11924744 29.46755981 C189.29657379 29.45042938 188.47390015 29.43329895 187.626297 29.41564941 C186.72707016 29.41229584 185.82784332 29.40894226 184.90136719 29.40548706 C183.95138855 29.39059235 183.00140991 29.37569763 182.02264404 29.36035156 C178.8728588 29.31646284 175.72352742 29.29607333 172.57348633 29.2795105 C170.38212574 29.26225185 168.19076527 29.2449787 165.99940491 29.22769165 C161.39850759 29.19615075 156.7977676 29.17863217 152.19677734 29.16818237 C146.31727055 29.15176653 140.43986189 29.0797807 134.56101131 28.99426651 C130.03031996 28.9382139 125.50012683 28.9227614 120.96911812 28.91817474 C118.80301054 28.90912505 116.63690966 28.88513926 114.47114372 28.8456192 C97.68726919 28.46985911 97.68726919 28.46985911 85.17114258 38.8888855 Z M236.17114258 29.8888855 C237.12291184 31.01176861 238.0764633 32.13314127 239.03076172 33.25387573 C239.56157852 33.87850204 240.09239532 34.50312836 240.63929749 35.14668274 C242.49555597 37.25784833 244.48643147 39.10910954 246.60864258 40.9513855 C250.96777826 44.79999178 255.24088958 48.72576479 259.48364258 52.7013855 C260.76999098 53.90462803 262.05644958 55.10775277 263.34301758 56.3107605 C264.29724609 57.20311401 264.29724609 57.20311401 265.27075195 58.11349487 C268.25252385 60.89913789 271.24029769 63.67818446 274.23364258 66.4513855 C274.74515869 66.92745239 275.2566748 67.40351929 275.78369141 67.89401245 C279.15591629 71.0134452 282.62337561 73.973707 286.17114258 76.8888855 C284.5312307 80.92559165 281.68723148 83.77938051 278.73364258 86.8888855 C277.64486384 88.05142393 276.55632749 89.21418941 275.46801758 90.37716675 C274.91694336 90.96320679 274.36586914 91.54924683 273.7980957 92.15304565 C271.33985539 94.77580805 268.91038922 97.42450798 266.48364258 100.0763855 C266.02860352 100.57275513 265.57356445 101.06912476 265.10473633 101.58053589 C262.29679558 104.64691643 259.50952104 107.73098146 256.73364258 110.8263855 C252.73596885 115.28175354 248.67913373 119.67972069 244.61279297 124.07223511 C241.60718185 127.322539 238.62562334 130.59185624 235.67114258 133.8888855 C231.69584204 138.32509045 227.6590659 142.70142948 223.61254883 147.07247925 C220.60703535 150.32271646 217.62554649 153.591942 214.67114258 156.8888855 C210.69584204 161.32509045 206.6590659 165.70142948 202.61254883 170.07247925 C199.60703535 173.32271646 196.62554649 176.591942 193.67114258 179.8888855 C190.20624097 183.75551483 186.69794384 187.57887811 183.17114258 191.3888855 C173.38699708 201.89238104 173.38699708 201.89238104 164.17114258 212.8888855 C165.52550946 215.89098989 167.0579833 218.05303725 169.33129883 220.427948 C169.95617187 221.0864978 170.58104492 221.74504761 171.22485352 222.42355347 C171.88775391 223.11336304 172.5506543 223.80317261 173.23364258 224.5138855 C174.59518279 225.9453567 175.95586175 227.37764758 177.31567383 228.8107605 C177.97647949 229.50620972 178.63728516 230.20165894 179.31811523 230.91818237 C182.43544393 234.23347581 185.4410061 237.64318681 188.43676758 241.068573 C190.23699936 243.09150433 190.23699936 243.09150433 193.17114258 244.8888855 C198.71017472 239.44000035 204.19252983 234.00886223 209.24536133 228.099823 C211.7479176 225.22670566 214.33176851 222.43369413 216.92114258 219.6388855 C217.43580078 219.08305786 217.95045898 218.52723022 218.48071289 217.95455933 C219.52861542 216.82302675 220.57663011 215.69159803 221.62475586 214.56027222 C227.32822436 208.39577185 233.00163255 202.20380675 238.60864258 195.9513855 C242.60631631 191.49601746 246.66315143 187.09805031 250.72949219 182.70553589 C253.73510331 179.45523199 256.71666182 176.18591475 259.67114258 172.8888855 C263.64644312 168.45268055 267.68321925 164.07634152 271.72973633 159.70529175 C274.7352498 156.45505453 277.71673867 153.18582899 280.67114258 149.8888855 C285.10484972 144.94298114 289.61057678 140.06601896 294.12036133 135.18966675 C300.32431019 128.4810433 306.50801051 121.7542486 312.60864258 114.9513855 C316.0956263 111.06517645 319.62459475 107.22058291 323.17114258 103.3888855 C333.40559231 92.34499688 333.40559231 92.34499688 343.17114258 80.8888855 C341.68670416 77.42780013 339.72484025 75.20374924 337.04614258 72.5763855 C335.95946289 71.49937378 335.95946289 71.49937378 334.85083008 70.40060425 C332.71570464 68.3993132 330.55461454 66.46420055 328.34692383 64.5451355 C324.29956538 61.02546702 320.38153906 57.38503158 316.48364258 53.7013855 C315.08813667 52.38853737 313.69229833 51.07604252 312.29614258 49.7638855 C311.60649414 49.11548706 310.9168457 48.46708862 310.20629883 47.79904175 C307.14172838 44.92269827 304.06669816 42.05789785 300.98364258 39.2013855 C300.20984253 38.48075928 300.20984253 38.48075928 299.42041016 37.74557495 C298.01603685 36.44685982 296.59403641 35.16728236 295.17114258 33.8888855 C294.54272461 33.18562134 293.91430664 32.48235718 293.2668457 31.75778198 C288.36412404 28.79797644 283.48379469 29.39795552 277.87036133 29.4982605 C276.67884964 29.50392029 275.48733795 29.50958008 274.25971985 29.51541138 C270.45894988 29.53777865 266.65912701 29.58797865 262.85864258 29.6388855 C260.27988016 29.65894991 257.70110295 29.67720078 255.12231445 29.693573 C248.80493473 29.73764479 242.48810632 29.8045618 236.17114258 29.8888855 Z " fill="#DC133B" transform="translate(454.828857421875,294.1111145019531)"/>
<path d="M0 0 C5.85311876 -0.17364341 11.70472417 -0.30034825 17.55981445 -0.38452148 C19.54933807 -0.41962406 21.53868239 -0.46731998 23.52758789 -0.52807617 C26.39514447 -0.61345001 29.26030637 -0.65278867 32.12890625 -0.68359375 C33.45276085 -0.73778725 33.45276085 -0.73778725 34.80335999 -0.79307556 C38.48255352 -0.79539039 41.00087492 -0.7297649 44.03076172 1.48327637 C45.79554134 3.2505139 47.40331905 5.08110933 49 7 C50.29332386 8.17219418 51.59961521 9.33061298 52.9296875 10.4609375 C57.82023641 14.68212936 62.48959645 19.12513149 67.17578125 23.5703125 C71.01325852 27.19253476 74.90527701 30.67064579 79 34 C77.36008812 38.03670615 74.5160889 40.89049501 71.5625 44 C70.47372126 45.16253843 69.38518491 46.32530391 68.296875 47.48828125 C67.74580078 48.07432129 67.19472656 48.66036133 66.62695312 49.26416016 C64.16871281 51.88692255 61.73924664 54.53562249 59.3125 57.1875 C58.85746094 57.68386963 58.40242187 58.18023926 57.93359375 58.69165039 C55.125653 61.75803093 52.33837846 64.84209596 49.5625 67.9375 C45.56482627 72.39286804 41.50799115 76.79083519 37.44165039 81.18334961 C33.7059783 85.2231502 30.01930706 89.3042217 26.34765625 93.40234375 C23.56799756 96.47800602 20.75460272 99.52116994 17.9375 102.5625 C13.22524186 107.65051366 8.57738994 112.78985321 4 118 C-1.95488859 113.18540922 -7.03726044 107.82833367 -12 102 C-12.60328125 101.32195312 -13.2065625 100.64390625 -13.828125 99.9453125 C-15 98 -15 98 -14.9140625 95.984375 C-13.77353696 93.50836228 -12.36625763 92.11055733 -10.375 90.25 C-7.71193935 87.68574548 -5.15798922 85.11786675 -2.75 82.3125 C0.34294424 78.72046702 3.52945314 75.22714991 6.75 71.75 C7.52162476 70.91662109 7.52162476 70.91662109 8.30883789 70.06640625 C9.3569943 68.93463855 10.40525305 67.80296562 11.45361328 66.67138672 C24.60936276 52.66491647 24.60936276 52.66491647 37 38 C35.51556158 34.53891463 33.55369767 32.31486374 30.875 29.6875 C30.15054688 28.96949219 29.42609375 28.25148438 28.6796875 27.51171875 C26.56982046 25.53410285 24.43594335 23.62216501 22.25390625 21.7265625 C17.75832145 17.81664781 13.40172776 13.76947624 9.0625 9.6875 C8.29615234 8.97271484 7.52980469 8.25792969 6.74023438 7.52148438 C5.6487207 6.49571289 5.6487207 6.49571289 4.53515625 5.44921875 C3.879104 4.83393311 3.22305176 4.21864746 2.54711914 3.5847168 C1 2 1 2 0 0 Z " fill="#DC133B" transform="translate(582,337)"/>
<path d="M0 0 C2.76026067 2.76026067 2.97237998 4.77114839 3.4375 8.625 C2.99473098 18.43971334 -2.10360711 26.48867147 -8 34 C-8.80244141 35.06734375 -8.80244141 35.06734375 -9.62109375 36.15625 C-15.56280358 43.56557641 -23.62114061 49.12422812 -33 51 C-33.09152344 51.65355469 -33.18304687 52.30710937 -33.27734375 52.98046875 C-34.23691061 56.98990219 -35.87075611 60.56386353 -37.5625 64.3125 C-37.89185547 65.05306641 -38.22121094 65.79363281 -38.56054688 66.55664062 C-39.36917123 68.37311562 -40.18397116 70.18683931 -41 72 C-40.58492187 71.5875 -40.16984375 71.175 -39.7421875 70.75 C-35.47088032 66.74676649 -30.97498429 63.56409118 -25.9375 60.625 C-25.3604834 60.27953125 -24.7834668 59.9340625 -24.18896484 59.578125 C-20.0386943 57.22736287 -16.66436086 56.41593027 -12 56 C-12.58972905 59.72170758 -13.63844064 62.56588279 -15.43359375 65.87109375 C-15.91763672 66.77537109 -16.40167969 67.67964844 -16.90039062 68.61132812 C-17.40763672 69.54396484 -17.91488281 70.47660156 -18.4375 71.4375 C-24.21382434 81.32123722 -24.21382434 81.32123722 -26.125 92.375 C-26.08375 93.57125 -26.0425 94.7675 -26 96 C-21.76806772 94.6689307 -19.99284997 93.1834081 -17.5625 89.5 C-16.97210937 88.61570312 -16.38171875 87.73140625 -15.7734375 86.8203125 C-13.50538421 83.21340837 -11.34781281 79.55089953 -9.26171875 75.8359375 C-8.84535156 75.23007812 -8.42898438 74.62421875 -8 74 C-7.34 74 -6.68 74 -6 74 C-7.19112022 83.64240181 -12.81839482 92.68199568 -20.25 98.875 C-24.21205829 100.49584203 -27.78731114 100.81738739 -32 100 C-35.44503807 97.3111898 -35.9154168 95.62380108 -36.5 91.3125 C-35.99247674 82.29550342 -30.72606099 74.40416222 -26 67 C-37.20156783 70.73385594 -44.45698915 81.0874124 -49.67578125 91.26953125 C-53.96669405 99.58502433 -53.96669405 99.58502433 -57.44140625 100.98046875 C-59.7110332 101.22554584 -61.73652194 101.26689537 -64 101 C-63.37554841 96.10866227 -61.28878204 92.21079914 -59.0703125 87.8828125 C-58.48381424 86.71974075 -58.48381424 86.71974075 -57.88546753 85.53317261 C-56.63764475 83.06086682 -55.38176591 80.59276993 -54.125 78.125 C-52.87674285 75.66370904 -51.63024437 73.20155038 -50.38595581 70.73825073 C-49.61279205 69.20870829 -48.83715547 67.6804124 -48.05862427 66.15359497 C-45.86666809 61.82961337 -43.86183143 57.47647439 -42 53 C-42.92619141 53.10828125 -42.92619141 53.10828125 -43.87109375 53.21875 C-49.62108387 53.8488859 -55.21646559 54.09328281 -61 54 C-61.27199219 54.85980469 -61.54398438 55.71960938 -61.82421875 56.60546875 C-62.98203456 59.948133 -64.35094363 63.09244837 -65.8125 66.3125 C-70.71149028 77.5037019 -75.78116608 90.60149226 -75 103 C-74.09223838 105.26193805 -74.09223838 105.26193805 -73 107 C-67.44946714 106.25640327 -67.44946714 106.25640327 -62 105 C-62.29073322 107.81042113 -62.81563062 108.83347282 -64.9375 110.75 C-69.3109932 112.53509927 -73.33946301 112.72427264 -78 112 C-81.09799981 109.80873184 -81.80352112 108.58943664 -83 105 C-84.76337742 87.5685806 -77.1531207 70.46512687 -70 55 C-73.96 54.505 -73.96 54.505 -78 54 C-77.125 50.125 -77.125 50.125 -76 49 C-74.31391034 48.92794489 -72.62499341 48.91613932 -70.9375 48.9375 C-70.01839844 48.94652344 -69.09929688 48.95554687 -68.15234375 48.96484375 C-67.44207031 48.97644531 -66.73179687 48.98804688 -66 49 C-65.79375 48.175 -65.5875 47.35 -65.375 46.5 C-62.92715752 40.26912824 -58.72891198 34.58056999 -53 31 C-49.6875 30.25 -49.6875 30.25 -47 30 C-48.52856944 34.27194933 -50.71598945 37.99394132 -53.125 41.8125 C-55.043125 44.8753125 -55.043125 44.8753125 -57 48 C-51.39 48 -45.78 48 -40 48 C-38.96723049 46.03579744 -37.93452563 44.07156086 -36.90209961 42.10717773 C-35.99992201 40.39341847 -35.09574763 38.68070906 -34.18969727 36.96899414 C-31.96773615 32.76713669 -29.76763392 28.55942376 -27.6484375 24.3046875 C-14.61017412 -1.62335268 -14.61017412 -1.62335268 0 0 Z M-6 6 C-12.01620989 12.20268452 -16.33847909 18.53633785 -20.3125 26.1875 C-20.82361328 27.14591797 -21.33472656 28.10433594 -21.86132812 29.09179688 C-23.25778477 31.71945976 -24.63308976 34.35687753 -26 37 C-26.50539307 37.960271 -26.50539307 37.960271 -27.02099609 38.93994141 C-28.56075474 41.81771117 -28.56075474 41.81771117 -29 45 C-20.58171086 43.36104105 -13.84734615 35.64944104 -9 29 C-4.82288595 22.26833633 -1.5030865 16.13695852 -2 8 C-3.32 7.34 -4.64 6.68 -6 6 Z " fill="#DC133A" transform="translate(954,665)"/>
<path d="M0 0 C2.4375 1.625 2.4375 1.625 4.4375 3.625 C4.5625 6.25 4.5625 6.25 4.4375 8.625 C2.5625 8.375 2.5625 8.375 0.4375 7.625 C-0.8125 5.5625 -0.8125 5.5625 -1.5625 3.625 C-7.34891419 3.16208686 -10.064666 3.97050987 -14.5625 7.625 C-22.57664207 14.46770135 -29.63845252 24.07445395 -31.5625 34.625 C-31.38679169 37.54484471 -31.38679169 37.54484471 -30.5625 39.625 C-27.99084553 40.09257354 -26.2048004 39.99573396 -23.91796875 38.67578125 C-16.1724168 32.57375499 -11.70797243 23.43457841 -7.703125 14.62109375 C-6.5625 12.625 -6.5625 12.625 -3.5625 10.625 C-0.875 10.5 -0.875 10.5 1.4375 10.625 C3.72540192 20.32134624 2.55853577 30.81593699 1.4375 40.625 C7.63296325 34.39187436 11.53058949 27.4150708 15.4375 19.625 C16.4275 19.625 17.4175 19.625 18.4375 19.625 C15.34634618 30.71678723 9.81447029 39.77011137 0.4375 46.625 C-0.5525 47.12 -0.5525 47.12 -1.5625 47.625 C-2.80190613 50.0681459 -3.97300361 52.51628904 -5.125 55 C-11.47621944 68.15798069 -20.7864535 79.96636142 -34.5546875 85.73828125 C-40.49957436 87.49086478 -46.80934122 87.98484014 -52.71875 85.84375 C-55.28997574 84.14577074 -56.43067877 82.25879646 -57.05078125 79.27734375 C-57.27187365 75.089222 -56.82817459 72.20062827 -55.0625 68.375 C-47.35418412 59.89585253 -37.20851744 55.30396202 -26.3828125 52.0078125 C-25.03461426 51.58423462 -25.03461426 51.58423462 -23.65917969 51.15209961 C-21.87536858 50.60181917 -20.08145083 50.08308322 -18.27832031 49.59985352 C-13.55224112 48.17339253 -13.55224112 48.17339253 -10.33764648 44.63745117 C-8.71147784 40.06272965 -8.12974899 35.40273078 -7.875 30.5625 C-7.80925781 29.43714844 -7.74351562 28.31179688 -7.67578125 27.15234375 C-7.63839844 26.31832031 -7.60101562 25.48429688 -7.5625 24.625 C-8.18125 25.676875 -8.18125 25.676875 -8.8125 26.75 C-18.56538919 42.77260367 -18.56538919 42.77260367 -27.5625 45.625 C-32.08651978 45.625 -33.99587394 45.09517907 -37.5 42.1875 C-40.54808026 37.95854096 -40.34593946 33.61388337 -39.5625 28.625 C-36.80102875 18.31009268 -30.56974332 7.58925571 -21.5625 1.625 C-14.77201466 -2.2925877 -7.29463417 -2.81547284 0 0 Z M-24 55.125 C-24.70431152 55.39836182 -25.40862305 55.67172363 -26.13427734 55.95336914 C-41.86808299 62.11761629 -41.86808299 62.11761629 -52.5625 74.625 C-52.91744058 77.96144144 -53.11675682 79.85386008 -51.125 82.625 C-46.94540652 84.25606087 -43.68054977 83.12482346 -39.5625 81.625 C-27.08609339 76.07111471 -19.27155502 65.11036902 -12.5625 53.625 C-16.69026096 51.86046096 -20.08365696 53.58069042 -24 55.125 Z " fill="#DC133B" transform="translate(613.5625,719.375)"/>
<path d="M0 0 C0.79019531 0.04511719 1.58039063 0.09023438 2.39453125 0.13671875 C2.98621094 0.19472656 3.57789063 0.25273438 4.1875 0.3125 C2.69972855 4.42485288 0.68132724 7.91519348 -1.625 11.625 C-5.87033223 18.5663776 -9.80833521 25.66095197 -13.6875 32.8125 C-14.24671143 33.83899658 -14.80592285 34.86549316 -15.38208008 35.9230957 C-18.10790839 40.97342113 -20.67283633 45.98578486 -22.8125 51.3125 C-22.25304687 50.81621094 -21.69359375 50.31992187 -21.1171875 49.80859375 C-14.39118312 44.109873 -5.02679268 36.71181198 4.10546875 36.125 C5.13607422 36.2178125 5.13607422 36.2178125 6.1875 36.3125 C5.69121094 37.27027344 5.19492187 38.22804688 4.68359375 39.21484375 C0.94944119 46.49921412 -2.61220298 53.83903262 -5.8125 61.375 C-6.11486572 62.06392334 -6.41723145 62.75284668 -6.72875977 63.46264648 C-8.59713737 67.96699577 -9.11671432 71.43873305 -8.8125 76.3125 C0.66275493 73.18647572 4.92070798 62.67416201 9.1875 54.3125 C9.8475 54.3125 10.5075 54.3125 11.1875 54.3125 C10.06424861 63.31172582 4.96563938 72.22636961 -1.8125 78.3125 C-5.6570448 80.61146013 -9.41305933 81.14882932 -13.8125 80.3125 C-16.8125 78.25 -16.8125 78.25 -18.8125 75.3125 C-20.41478467 64.89764967 -14.03776345 55.77313206 -8.8125 47.3125 C-20.53652059 51.38001735 -28.83994057 63.35655673 -34.24609375 74.18359375 C-34.61863281 74.98925781 -34.99117188 75.79492188 -35.375 76.625 C-36.74070195 79.29702556 -37.22785936 80.11761979 -40.109375 81.078125 C-42.39105812 81.34739195 -44.52139341 81.37142407 -46.8125 81.3125 C-44.96073795 75.2971813 -42.72624194 69.72148785 -39.86328125 64.12109375 C-39.48697067 63.37271744 -39.1106601 62.62434113 -38.72294617 61.85328674 C-37.5293087 59.48260829 -36.32740486 57.11624156 -35.125 54.75 C-34.33862721 53.19234265 -33.55281617 51.63440158 -32.76757812 50.07617188 C-31.21306179 46.99293082 -29.65541072 43.91130485 -28.09545898 40.83081055 C-25.87985712 36.45171023 -23.68368487 32.06307688 -21.4921875 27.671875 C-16.13162992 16.94050865 -16.13162992 16.94050865 -13.625 12.125 C-13.16963867 11.22297852 -13.16963867 11.22297852 -12.70507812 10.30273438 C-9.81797303 4.79975535 -6.79870643 -0.50736615 0 0 Z " fill="#DC133B" transform="translate(414.8125,684.6875)"/>
<path d="M0 0 C0.78890625 0.13921875 1.5778125 0.2784375 2.390625 0.421875 C3.18984375 0.55078125 3.9890625 0.6796875 4.8125 0.8125 C5.71742188 0.99039063 5.71742188 0.99039063 6.640625 1.171875 C6.24230469 1.75195312 5.84398437 2.33203125 5.43359375 2.9296875 C2.51310893 7.2358038 -0.17821946 11.446038 -2.359375 16.171875 C-1.78832031 15.67558594 -1.21726562 15.17929687 -0.62890625 14.66796875 C15.04558407 1.53528767 15.04558407 1.53528767 23.52734375 0.984375 C24.22472656 1.04625 24.92210937 1.108125 25.640625 1.171875 C25.05132695 5.73893489 23.11724362 9.28536404 20.890625 13.234375 C13.62587359 26.50244222 13.62587359 26.50244222 10.640625 41.171875 C19.74244875 38.57135393 23.17559092 30.88462581 27.578125 23.046875 C28.27144598 21.75832347 28.96132246 20.46787156 29.640625 19.171875 C30.630625 19.501875 31.620625 19.831875 32.640625 20.171875 C29.39402995 29.64951272 24.5095911 39.85049534 15.640625 45.171875 C12.47792518 45.84598509 9.79763678 45.88568465 6.640625 45.171875 C3.578125 43.109375 3.578125 43.109375 1.640625 40.171875 C-0.15072032 30.21995654 6.43505964 20.17109377 11.640625 12.171875 C-1.13314211 16.60359012 -8.41065799 29.43640199 -14.359375 40.921875 C-16.65043581 44.92152354 -16.65043581 44.92152354 -19.7265625 46.0078125 C-21.99720552 46.26953771 -24.08270351 46.26812168 -26.359375 46.171875 C-24.15801193 39.03769166 -21.29611514 32.45006233 -18.046875 25.734375 C-17.35561523 24.27547852 -17.35561523 24.27547852 -16.65039062 22.78710938 C-5.91275785 0.4307307 -5.91275785 0.4307307 0 0 Z " fill="#DC133A" transform="translate(774.359375,719.828125)"/>
<path d="M0 0 C1.50433594 0.01353516 1.50433594 0.01353516 3.0390625 0.02734375 C3.80992187 0.03894531 4.58078125 0.05054688 5.375 0.0625 C5.375 0.7225 5.375 1.3825 5.375 2.0625 C4.31345703 3.02349609 4.31345703 3.02349609 3.23046875 4.00390625 C-0.81958886 7.89978472 -2.89819348 13.00386366 -5.3125 18 C-5.79783203 18.97646484 -6.28316406 19.95292969 -6.78320312 20.95898438 C-10.31186444 28.13798497 -12.95082118 33.91697047 -12.625 42.0625 C0.27531308 37.34287326 6.24839804 19.82556855 12.27734375 8.48828125 C12.80457031 7.50214844 13.33179688 6.51601563 13.875 5.5 C14.54015625 4.22962891 14.54015625 4.22962891 15.21875 2.93359375 C16.375 1.0625 16.375 1.0625 18.375 0.0625 C20.08202735 -0.00746014 21.79168003 -0.02190154 23.5 0 C24.41007812 0.00902344 25.32015625 0.01804687 26.2578125 0.02734375 C27.30582031 0.04474609 27.30582031 0.04474609 28.375 0.0625 C27.97410156 0.63613281 27.57320313 1.20976563 27.16015625 1.80078125 C19.80042589 12.79865496 11.12093348 26.5969747 11.375 40.0625 C13.61724658 40.65213678 13.61724658 40.65213678 16.375 40.0625 C22.34497243 34.4818736 25.71326728 27.26679662 29.375 20.0625 C30.035 20.0625 30.695 20.0625 31.375 20.0625 C30.3779334 28.55034905 26.07761208 37.18519145 19.5625 42.8125 C15.43766439 45.72414867 13.45267229 46.65987321 8.375 46.0625 C4.96207056 43.4838422 3.58709781 41.92720646 2.5625 37.75 C2.4696875 36.4196875 2.4696875 36.4196875 2.375 35.0625 C1.84390625 35.68898438 1.3128125 36.31546875 0.765625 36.9609375 C0.05921875 37.77820313 -0.6471875 38.59546875 -1.375 39.4375 C-2.07109375 40.24960937 -2.7671875 41.06171875 -3.484375 41.8984375 C-6.41166093 44.85777401 -8.43921995 45.93635319 -12.5625 46.375 C-16.03046033 46.0211265 -17.84535395 45.12737992 -20.625 43.0625 C-22.24179341 39.82891317 -22.07604383 36.56861406 -21.625 33.0625 C-20.79013456 30.78739277 -19.81157773 28.68109414 -18.6953125 26.53125 C-17.46918956 23.90490404 -17.46918956 23.90490404 -16.7421875 20.27734375 C-15.68775082 15.83460905 -13.82359699 12.10398259 -11.625 8.125 C-11.26921875 7.45404297 -10.9134375 6.78308594 -10.546875 6.09179688 C-7.51791452 0.5029127 -6.21174772 -0.07222962 0 0 Z " fill="#DC133B" transform="translate(290.625,718.9375)"/>
<path d="M0 0 C2.89453125 1.78125 2.89453125 1.78125 5 4 C5 5.32 5 6.64 5 8 C3.68 7.67 2.36 7.34 1 7 C1 6.34 1 5.68 1 5 C-3.98766752 4.46560705 -6.936176 4.51225072 -11.0625 7.5 C-20.16251699 15.16036586 -28.70823809 25.60644866 -29.9375 37.8125 C-29.9885116 39.20755646 -30.02205576 40.60418545 -30 42 C-22.22813019 40.01184726 -18.63792881 34.88213098 -14.5625 28.3125 C-14.17634521 27.70253174 -13.79019043 27.09256348 -13.39233398 26.46411133 C-10.5581435 21.96607946 -7.83325291 17.40679213 -5.19140625 12.79296875 C-4 11 -4 11 -2 10 C-0.45386986 10.08651631 1.08909387 10.24002636 2.625 10.4375 C3.44226563 10.53933594 4.25953125 10.64117188 5.1015625 10.74609375 C5.72804688 10.82988281 6.35453125 10.91367187 7 11 C6.18595703 12.37671875 6.18595703 12.37671875 5.35546875 13.78125 C0.11874843 22.72330048 -4.06122453 30.48571477 -5 41 C-4.01 41.495 -4.01 41.495 -3 42 C1.77201845 38.41586597 4.53298879 35.05903299 7.3125 29.8125 C7.65861328 29.18408203 8.00472656 28.55566406 8.36132812 27.90820312 C9.61405656 25.62496513 10.8352793 23.32944139 12 21 C12.99 21 13.98 21 15 21 C13.77851552 30.11812362 7.15291662 40.31742636 -0.05078125 45.921875 C-3.20739515 47.66781776 -5.5109433 47.67097244 -9 47 C-11.375 46.0625 -11.375 46.0625 -13 44 C-13.62606327 41.00762978 -13.87206945 38.05114366 -14 35 C-14.61488281 35.69867187 -15.22976563 36.39734375 -15.86328125 37.1171875 C-17.07564453 38.48230469 -17.07564453 38.48230469 -18.3125 39.875 C-19.11300781 40.77992188 -19.91351562 41.68484375 -20.73828125 42.6171875 C-23.63841091 45.67259181 -25.20253088 46.91300337 -29.4375 47.375 C-33 47 -33 47 -35.375 45.25 C-38.42741621 41.02357756 -38.33217622 37.14873142 -38 32 C-35.60255694 19.91119812 -28.95669829 10.00569551 -19.16796875 2.6171875 C-13.4071946 -0.85140493 -6.52300555 -1.13588829 0 0 Z " fill="#DC133B" transform="translate(851,718)"/>
<path d="M0 0 C1.010625 -0.01675781 2.02125 -0.03351562 3.0625 -0.05078125 C6.43343876 0.36610346 8.30455738 1.27035137 11 3.3125 C11.8125 6 11.8125 6 12 8.3125 C9.13275314 7.73905063 8.1385485 7.4510485 6 5.3125 C2.29675887 4.80751257 0.38016811 5.11028292 -2.9375 6.875 C-12.19464227 14.24292956 -19.790316 23.71570202 -23 35.3125 C-23.16798469 38.56294709 -23.16798469 38.56294709 -23 41.3125 C-20.44719828 41.8540034 -18.70262025 41.75119183 -16.4609375 40.3515625 C-10.6401181 35.13765318 -7.12776957 28.09282446 -3.33203125 21.37109375 C2.13562265 11.74468867 2.13562265 11.74468867 5 10.3125 C6.54613014 10.39901631 8.08909387 10.55252636 9.625 10.75 C10.44226563 10.85183594 11.25953125 10.95367188 12.1015625 11.05859375 C12.72804688 11.14238281 13.35453125 11.22617187 14 11.3125 C13.54109375 11.99054687 13.0821875 12.66859375 12.609375 13.3671875 C6.61106556 22.46546359 2.70623699 30.36582673 2 41.3125 C2.99 41.8075 2.99 41.8075 4 42.3125 C9.1782685 38.50759836 11.9054315 34.65127067 14.875 29 C15.2771875 28.25943359 15.679375 27.51886719 16.09375 26.75585938 C17.07377864 24.9474732 18.03849915 23.13080493 19 21.3125 C19.99 21.3125 20.98 21.3125 22 21.3125 C20.78664099 30.36996867 14.17378202 40.64643949 7.01953125 46.234375 C3.41823363 48.1569246 1.0091082 47.99200986 -3 47.3125 C-5.20810931 45.68197484 -5.90213415 44.74505213 -6.51171875 42.05078125 C-6.56972656 41.25027344 -6.62773437 40.44976563 -6.6875 39.625 C-6.78611328 38.41263672 -6.78611328 38.41263672 -6.88671875 37.17578125 C-6.92410156 36.56089844 -6.96148437 35.94601562 -7 35.3125 C-7.60328125 36.01117187 -8.2065625 36.70984375 -8.828125 37.4296875 C-9.62734375 38.33976563 -10.4265625 39.24984375 -11.25 40.1875 C-12.43335938 41.54488281 -12.43335938 41.54488281 -13.640625 42.9296875 C-16.71462095 46.03421984 -18.69410782 47.14926348 -23 47.6875 C-26 47.3125 -26 47.3125 -28.3125 45.5 C-31.66656019 41.1521442 -31.555841 36.56916778 -31 31.3125 C-28.26827469 20.15521227 -22.46310152 10.48291249 -13.2109375 3.65234375 C-8.77786124 0.96586821 -5.18782176 0.01985136 0 0 Z " fill="#DC133B" transform="translate(464,717.6875)"/>
<path d="M0 0 C0 1.32 0 2.64 0 4 C-2.31 4 -4.62 4 -7 4 C-9.50619701 7.75929551 -9.83873586 11.65830846 -9 16 C-7.59781118 19.11411487 -6.01193017 22.09550747 -4.4140625 25.11328125 C-1.69342548 30.66728887 -1.48089228 34.94766788 -3.375 40.875 C-4.16258435 42.9874926 -4.99184513 44.98369026 -6 47 C-0.91455493 43.6398125 1.17216457 39.5482438 3.8125 34.25 C4.21919922 33.45722656 4.62589844 32.66445313 5.04492188 31.84765625 C6.04043801 29.90347179 7.02497244 27.9545175 8 26 C8.99 26 9.98 26 11 26 C9.68681261 35.05762586 4.14935396 43.62537617 -2.421875 49.828125 C-6.73292392 53.02939895 -12.2702429 52.22240672 -17.375 52.25 C-18.32117188 52.270625 -19.26734375 52.29125 -20.2421875 52.3125 C-29.0566965 52.36201971 -29.0566965 52.36201971 -33 49 C-35.73388242 44.89917636 -35.94282836 41.80237065 -35 37 C-33.58740234 35.12939453 -33.58740234 35.12939453 -31.7734375 33.3203125 C-27.7638563 28.97537157 -25.49330419 24.40652328 -23.0625 19.0625 C-14.79513085 1.74031776 -14.79513085 1.74031776 -7.9765625 -0.734375 C-5.19210675 -1.10857063 -2.73348983 -0.55912292 0 0 Z M-16 13 C-19.63 19.6 -23.26 26.2 -27 33 C-26.34 33.33 -25.68 33.66 -25 34 C-24.76171875 35.890625 -24.76171875 35.890625 -24.6875 38.25 C-24.36489356 42.13988919 -24.09373608 42.88797395 -21.4375 46.0625 C-20.2309375 47.0215625 -20.2309375 47.0215625 -19 48 C-15.19383063 45.2956165 -13.41011823 43.44283827 -12 39 C-10.97659934 30.08179422 -12.85794004 21.61924127 -15 13 C-15.33 13 -15.66 13 -16 13 Z M-28 41 C-28.6878236 43.35367713 -28.6878236 43.35367713 -29 46 C-28.01 47.485 -28.01 47.485 -27 49 C-26.01 48.67 -25.02 48.34 -24 48 C-24.99 45.69 -25.98 43.38 -27 41 C-27.33 41 -27.66 41 -28 41 Z " fill="#DC133B" transform="translate(359,713)"/>
<path d="M0 0 C1 3 1 3 -0.65234375 6.57421875 C-1.40387723 7.95092168 -2.1660567 9.32185409 -2.9375 10.6875 C-3.51661133 11.7403418 -3.51661133 11.7403418 -4.10742188 12.81445312 C-5.06261773 14.54795672 -6.03015386 16.27465009 -7 18 C-3.7 18.33 -0.4 18.66 3 19 C2 23 2 23 1 24 C-1.01964199 24.07244053 -3.04167124 24.08377188 -5.0625 24.0625 C-6.16722656 24.05347656 -7.27195313 24.04445313 -8.41015625 24.03515625 C-9.26480469 24.02355469 -10.11945313 24.01195312 -11 24 C-11.14695313 24.52464844 -11.29390625 25.04929687 -11.4453125 25.58984375 C-13.35616629 32.18997668 -15.60141068 38.6474785 -17.93017578 45.10913086 C-20.22458094 51.50549904 -21.21792381 56.24436196 -21 63 C-20.67 63.66 -20.34 64.32 -20 65 C-16.17243886 65.07811349 -14.04695253 64.97249254 -11.1875 62.31640625 C-6.68035687 56.67241674 -3.27446554 50.4169929 0 44 C0.66 44 1.32 44 2 44 C0.80477503 53.67563069 -4.83494587 62.57281075 -12.1875 68.875 C-16.45594418 70.58237767 -20.47548672 70.80248969 -25 70 C-28.21280141 67.41408667 -28.85623204 65.72572689 -29.65234375 61.70703125 C-30.81817202 49.27589609 -24.41905743 36.35637224 -20 25 C-22.31 24.67 -24.62 24.34 -27 24 C-26.125 20.125 -26.125 20.125 -25 19 C-23.80375 19.0825 -22.6075 19.165 -21.375 19.25 C-19.11722079 19.15242879 -19.11722079 19.15242879 -17 18 C-14.9017955 14.84832199 -13.36344299 11.66130607 -11.8359375 8.19921875 C-9.37526771 3.91137075 -6.32702318 1.73484943 -1.625 0.25 C-1.08875 0.1675 -0.5525 0.085 0 0 Z " fill="#DC133B" transform="translate(261,695)"/>
<path d="M0 0 C2.5625 0.25 2.5625 0.25 5 1 C6.14273574 3.28547148 6.23127257 4.76879905 6.3125 7.3125 C6.34988281 8.07175781 6.38726563 8.83101562 6.42578125 9.61328125 C6 12 6 12 2 17 C6.95 17 11.9 17 17 17 C17 23.7385958 17 23.7385958 14.8828125 28.046875 C14.44066406 28.975 13.99851562 29.903125 13.54296875 30.859375 C12.84107422 32.29023437 12.84107422 32.29023437 12.125 33.75 C8.67518745 40.78491187 6.11849298 47.2108743 5 55 C9.26116973 53.6647362 11.04465889 52.13788437 13.5 48.4375 C14.08910156 47.55191406 14.67820312 46.66632812 15.28515625 45.75390625 C17.6759978 41.91439988 19.90041473 38.00566037 22 34 C22.66 34 23.32 34 24 34 C22.87674861 42.99922582 17.77813938 51.91386961 11 58 C7.50561919 60.02414231 5.06147571 60.58021082 1 60 C-1.92412813 58.02939191 -3.65008628 56.54570584 -4.44921875 53.015625 C-4.91027943 44.0487897 -0.43682831 36.31288093 4.14453125 28.91015625 C5.32573112 26.84991705 5.32573112 26.84991705 4 24 C2.12612784 23.19787372 2.12612784 23.19787372 -0.0625 22.8125 C-1.16271484 22.57466797 -1.16271484 22.57466797 -2.28515625 22.33203125 C-3.13400391 22.16767578 -3.13400391 22.16767578 -4 22 C-4.19335938 22.67546875 -4.38671875 23.3509375 -4.5859375 24.046875 C-4.84632813 24.93890625 -5.10671875 25.8309375 -5.375 26.75 C-5.63023437 27.63171875 -5.88546875 28.5134375 -6.1484375 29.421875 C-6.9209934 31.76080572 -7.83625676 33.83442562 -9 36 C-9.99 36 -10.98 36 -12 36 C-11.18831596 31.11999715 -9.63969237 26.50850533 -8.125 21.8125 C-6.19929771 15.8046981 -4.30910238 9.80050806 -2.640625 3.71484375 C-2 2 -2 2 0 0 Z " fill="#DC133B" transform="translate(508,705)"/>
<path d="M0 0 C2 0.6875 2 0.6875 4 2.6875 C4.6335443 8.11787975 4.6335443 8.11787975 4 10.6875 C2.35 12.6675 0.7 14.6475 -1 16.6875 C4.28 16.6875 9.56 16.6875 15 16.6875 C14.55897629 23.41891454 12.59539639 28.33214092 9.5625 34.3125 C4.70234221 43.55177606 4.70234221 43.55177606 3 53.6875 C7.21414739 52.93691152 8.7615369 51.23274327 11.40625 48.0078125 C14.48110246 43.53118906 16.72290128 38.60506425 19 33.6875 C19.99 33.6875 20.98 33.6875 22 33.6875 C20.25141055 43.97867751 14.35344365 51.53631217 7 58.6875 C4.14675563 60.11412219 2.16545451 59.99783868 -1 59.6875 C-3.875 58.4375 -3.875 58.4375 -6 55.6875 C-8.14650178 47.65153396 -5.2919862 41.51220005 -1.4375 34.625 C-1.00099121 33.88677002 -0.56448242 33.14854004 -0.11474609 32.38793945 C0.29565918 31.69144287 0.70606445 30.99494629 1.12890625 30.27734375 C1.51119385 29.65722412 1.89348145 29.03710449 2.28735352 28.39819336 C3.30034762 26.49399744 3.30034762 26.49399744 2 23.6875 C-0.64 23.3575 -3.28 23.0275 -6 22.6875 C-7.65 26.9775 -9.3 31.2675 -11 35.6875 C-11.99 35.6875 -12.98 35.6875 -14 35.6875 C-12.6315603 29.18083239 -10.94402917 22.85659043 -9 16.5 C-8.73960937 15.63697266 -8.47921875 14.77394531 -8.2109375 13.88476562 C-7.48316188 11.48273853 -6.74210999 9.08512667 -6 6.6875 C-5.4740625 4.92986328 -5.4740625 4.92986328 -4.9375 3.13671875 C-3.80165165 0.16931493 -3.1796826 -0.49682541 0 0 Z " fill="#DC133B" transform="translate(692,705.3125)"/>
<path d="M0 0 C3.63 0 7.26 0 11 0 C12.01662472 5.0831236 12.08976179 5.69254541 10.015625 9.984375 C9.57476563 10.92023437 9.13390625 11.85609375 8.6796875 12.8203125 C8.20789063 13.78710938 7.73609375 14.75390625 7.25 15.75 C0.77294192 28.28927152 0.77294192 28.28927152 -1 42 C6.24866429 40.14569053 9.37491266 36.20704111 13.125 30 C14.08723961 28.33558554 15.0455888 26.66891576 16 25 C16.9965896 23.33129183 17.99563359 21.66403903 19 20 C19.99 20.33 20.98 20.66 22 21 C14.1888412 40.02246907 14.1888412 40.02246907 6 45 C2.09287653 46.02280719 -1.38698563 46.6572603 -5.1953125 45.10546875 C-7.60981747 43.6264538 -8.14338562 42.7126122 -9 40 C-9.88183148 32.00662429 -6.88245012 25.64136516 -3.9375 18.3125 C-2.97665023 15.91739373 -2.02692315 13.51778712 -1.08984375 11.11328125 C-0.66566162 10.05923096 -0.24147949 9.00518066 0.19555664 7.91918945 C1.32474776 4.67556937 1.32474776 4.67556937 0 0 Z " fill="#DC133A" transform="translate(646,719)"/>
<path d="M0 0 C3.3 0 6.6 0 10 0 C11.3241068 4.41082659 10.62158861 6.74213298 8.76171875 10.89453125 C8.27123047 12.01537109 7.78074219 13.13621094 7.27539062 14.29101562 C6.75138672 15.45310547 6.22738281 16.61519531 5.6875 17.8125 C0.96031589 28.11499461 0.96031589 28.11499461 -2 39 C-1.67 39.66 -1.34 40.32 -1 41 C1.903768 40.93086267 4.15238711 40.66518702 6.48828125 38.83203125 C11.49629973 33.3650569 14.66683098 26.55786212 18 20 C18.99 20 19.98 20 21 20 C19.58444888 29.13524266 13.77360627 37.82952306 7 44 C3.24125515 46.24347785 0.38027717 46.46108181 -4 46 C-7.75160572 44.04264049 -8.7636982 42.69577754 -10.125 38.6875 C-10.77242146 29.012146 -4.57363748 17.64220407 -0.91796875 8.90234375 C0.06938649 5.7806206 0.16921554 3.25377316 0 0 Z " fill="#DC133B" transform="translate(729,719)"/>
<path d="M0 0 C2.33944736 0.28730055 4.6739143 0.61936779 7 1 C7.75 3.75 7.75 3.75 8 7 C6.5 9.4375 6.5 9.4375 4 11 C0.25 10.75 0.25 10.75 -3 10 C-3.6875 8.3125 -3.6875 8.3125 -4 6 C-2.85213059 3.75643706 -1.7904233 1.7904233 0 0 Z " fill="#DC1239" transform="translate(739,701)"/>
<path d="M0 0 C2 2 2 2 2.3125 4.9375 C2 8 2 8 0.875 9.875 C-1.86916239 11.52149743 -3.8694571 11.39964378 -7 11 C-9 8 -9 8 -8.8125 4.9375 C-7.46455026 0.06414324 -4.62849747 -0.47471769 0 0 Z " fill="#DC133A" transform="translate(662,701)"/>
</svg>
